<mxfile host="app.diagrams.net" agent="Mozilla/5.0 (Windows NT 10.0; Win64; x64) AppleWebKit/537.36 (KHTML, like Gecko) Chrome/140.0.0.0 Safari/537.36" version="28.2.1">
  <diagram name="Page-1" id="b0BQuSCEksVyvnk80Ndc">
    <mxGraphModel dx="786" dy="417" grid="1" gridSize="10" guides="1" tooltips="1" connect="1" arrows="1" fold="1" page="1" pageScale="1" pageWidth="850" pageHeight="1100" math="0" shadow="0">
      <root>
        <mxCell id="0" />
        <mxCell id="1" parent="0" />
        <mxCell id="-bhLzEEgGe51W_wiyJ5W-1" value="&lt;b&gt;High Level Architecture&lt;/b&gt;" style="rounded=0;whiteSpace=wrap;html=1;fontSize=16;" vertex="1" parent="1">
          <mxGeometry x="30" y="10" width="120" height="60" as="geometry" />
        </mxCell>
        <mxCell id="-bhLzEEgGe51W_wiyJ5W-2" value="" style="rounded=0;whiteSpace=wrap;html=1;fillColor=none;dashed=1;dashPattern=12 12;strokeColor=#481C1C;" vertex="1" parent="1">
          <mxGeometry x="60" y="120" width="120" height="310" as="geometry" />
        </mxCell>
        <mxCell id="-bhLzEEgGe51W_wiyJ5W-3" value="&lt;b&gt;&lt;font&gt;Source&lt;/font&gt;&lt;/b&gt;" style="rounded=0;whiteSpace=wrap;html=1;" vertex="1" parent="1">
          <mxGeometry x="90" y="100" width="60" height="20" as="geometry" />
        </mxCell>
        <mxCell id="-bhLzEEgGe51W_wiyJ5W-4" value="" style="rounded=0;whiteSpace=wrap;html=1;fillColor=none;dashed=1;dashPattern=12 12;strokeColor=#481C1C;" vertex="1" parent="1">
          <mxGeometry x="210" y="120" width="420" height="310" as="geometry" />
        </mxCell>
        <mxCell id="-bhLzEEgGe51W_wiyJ5W-5" value="&lt;b&gt;&lt;font&gt;Data Warehouse&lt;/font&gt;&lt;/b&gt;" style="rounded=0;whiteSpace=wrap;html=1;" vertex="1" parent="1">
          <mxGeometry x="380" y="89" width="80" height="30" as="geometry" />
        </mxCell>
        <mxCell id="-bhLzEEgGe51W_wiyJ5W-6" value="" style="rounded=0;whiteSpace=wrap;html=1;fillColor=none;dashed=1;dashPattern=12 12;strokeColor=#481C1C;" vertex="1" parent="1">
          <mxGeometry x="652" y="120" width="120" height="310" as="geometry" />
        </mxCell>
        <mxCell id="-bhLzEEgGe51W_wiyJ5W-7" value="&lt;b&gt;&lt;font&gt;Consume&lt;/font&gt;&lt;/b&gt;" style="rounded=0;whiteSpace=wrap;html=1;" vertex="1" parent="1">
          <mxGeometry x="682" y="100" width="60" height="20" as="geometry" />
        </mxCell>
        <mxCell id="-bhLzEEgGe51W_wiyJ5W-8" value="Bronze" style="rounded=1;whiteSpace=wrap;html=1;fillColor=#ffe6cc;strokeColor=#d79b00;fontStyle=1" vertex="1" parent="1">
          <mxGeometry x="235" y="130" width="80" height="40" as="geometry" />
        </mxCell>
        <mxCell id="-bhLzEEgGe51W_wiyJ5W-9" value="" style="rounded=1;whiteSpace=wrap;html=1;fillColor=none;strokeColor=#d79b00;" vertex="1" parent="1">
          <mxGeometry x="225" y="181" width="95" height="240" as="geometry" />
        </mxCell>
        <mxCell id="-bhLzEEgGe51W_wiyJ5W-10" value="Silver" style="rounded=1;whiteSpace=wrap;html=1;fillColor=#bac8d3;strokeColor=#23445d;fontStyle=1" vertex="1" parent="1">
          <mxGeometry x="380" y="130" width="80" height="40" as="geometry" />
        </mxCell>
        <mxCell id="-bhLzEEgGe51W_wiyJ5W-11" value="" style="rounded=1;whiteSpace=wrap;html=1;fillColor=none;strokeColor=#23445d;" vertex="1" parent="1">
          <mxGeometry x="360" y="180" width="100" height="240" as="geometry" />
        </mxCell>
        <mxCell id="-bhLzEEgGe51W_wiyJ5W-12" value="Gold" style="rounded=1;whiteSpace=wrap;html=1;fillColor=#ffcd28;strokeColor=#d79b00;gradientColor=#ffa500;fontStyle=1" vertex="1" parent="1">
          <mxGeometry x="517" y="130" width="80" height="40" as="geometry" />
        </mxCell>
        <mxCell id="-bhLzEEgGe51W_wiyJ5W-13" value="" style="rounded=1;whiteSpace=wrap;html=1;fillColor=none;strokeColor=#d79b00;gradientColor=#ffa500;" vertex="1" parent="1">
          <mxGeometry x="500" y="180" width="109" height="240" as="geometry" />
        </mxCell>
        <mxCell id="-bhLzEEgGe51W_wiyJ5W-14" value="&lt;b&gt;CRM&lt;/b&gt;" style="image;aspect=fixed;html=1;points=[];align=center;fontSize=12;image=img/lib/azure2/general/Folder_Blank.svg;" vertex="1" parent="1">
          <mxGeometry x="92" y="149.12" width="50" height="40.58" as="geometry" />
        </mxCell>
        <mxCell id="-bhLzEEgGe51W_wiyJ5W-15" value="" style="verticalLabelPosition=bottom;html=1;verticalAlign=top;align=center;strokeColor=none;fillColor=#00BEF2;shape=mxgraph.azure.file_2;pointerEvents=1;" vertex="1" parent="1">
          <mxGeometry x="122" y="169.7" width="20" height="20" as="geometry" />
        </mxCell>
        <mxCell id="-bhLzEEgGe51W_wiyJ5W-16" value="&lt;b&gt;ERP&lt;/b&gt;" style="image;aspect=fixed;html=1;points=[];align=center;fontSize=12;image=img/lib/azure2/general/Folder_Blank.svg;" vertex="1" parent="1">
          <mxGeometry x="93" y="220" width="50" height="40.58" as="geometry" />
        </mxCell>
        <mxCell id="-bhLzEEgGe51W_wiyJ5W-17" value="" style="verticalLabelPosition=bottom;html=1;verticalAlign=top;align=center;strokeColor=none;fillColor=#00BEF2;shape=mxgraph.azure.file_2;pointerEvents=1;" vertex="1" parent="1">
          <mxGeometry x="120" y="240.58" width="23" height="19.42" as="geometry" />
        </mxCell>
        <mxCell id="-bhLzEEgGe51W_wiyJ5W-24" value="&lt;div style=&quot;&quot;&gt;&lt;span style=&quot;font-size: 8px; background-color: transparent; color: light-dark(rgb(0, 0, 0), rgb(255, 255, 255));&quot;&gt;&lt;b&gt;File Type&lt;/b&gt;: CSV&lt;/span&gt;&lt;/div&gt;&lt;div style=&quot;&quot;&gt;&lt;font style=&quot;font-size: 8px;&quot;&gt;&lt;b&gt;Interface&lt;/b&gt;: Files in Folders&lt;/font&gt;&lt;/div&gt;" style="rounded=0;whiteSpace=wrap;html=1;align=center;" vertex="1" parent="1">
          <mxGeometry x="70" y="290" width="90" height="50" as="geometry" />
        </mxCell>
        <mxCell id="-bhLzEEgGe51W_wiyJ5W-25" value="" style="html=1;verticalLabelPosition=bottom;align=center;labelBackgroundColor=#ffffff;verticalAlign=top;strokeWidth=2;strokeColor=#d79b00;shadow=0;dashed=0;shape=mxgraph.ios7.icons.data;fillColor=#ffe6cc;" vertex="1" parent="1">
          <mxGeometry x="247.5" y="194.03" width="50" height="48.52" as="geometry" />
        </mxCell>
        <mxCell id="-bhLzEEgGe51W_wiyJ5W-27" value="" style="html=1;verticalLabelPosition=bottom;align=center;labelBackgroundColor=#ffffff;verticalAlign=top;strokeWidth=2;strokeColor=#23445d;shadow=0;dashed=0;shape=mxgraph.ios7.icons.data;fillColor=#bac8d3;" vertex="1" parent="1">
          <mxGeometry x="385" y="192.06" width="50" height="48.52" as="geometry" />
        </mxCell>
        <mxCell id="-bhLzEEgGe51W_wiyJ5W-28" value="" style="html=1;verticalLabelPosition=bottom;align=center;labelBackgroundColor=#ffffff;verticalAlign=top;strokeWidth=2;strokeColor=#d79b00;shadow=0;dashed=0;shape=mxgraph.ios7.icons.data;fillColor=#ffcd28;gradientColor=#ffa500;" vertex="1" parent="1">
          <mxGeometry x="531.5" y="189.7" width="50" height="48.52" as="geometry" />
        </mxCell>
        <mxCell id="-bhLzEEgGe51W_wiyJ5W-30" value="" style="shape=mxgraph.arrows.right_notched_arrow;html=1;verticalLabelPosition=bottom;verticalAlign=top;strokeWidth=2;strokeColor=#B20000;fillColor=#e51400;fontColor=#ffffff;" vertex="1" parent="1">
          <mxGeometry x="320" y="205.92999999999998" width="40" height="24.71" as="geometry" />
        </mxCell>
        <mxCell id="-bhLzEEgGe51W_wiyJ5W-31" value="" style="shape=mxgraph.arrows.right_notched_arrow;html=1;verticalLabelPosition=bottom;verticalAlign=top;strokeWidth=2;strokeColor=#B20000;fillColor=#e51400;fontColor=#ffffff;" vertex="1" parent="1">
          <mxGeometry x="460" y="201.61" width="40" height="24.71" as="geometry" />
        </mxCell>
        <mxCell id="-bhLzEEgGe51W_wiyJ5W-32" value="Clean, Standardized Data" style="rounded=1;whiteSpace=wrap;html=1;fontSize=10;" vertex="1" parent="1">
          <mxGeometry x="372.5" y="252.55" width="75" height="37.45" as="geometry" />
        </mxCell>
        <mxCell id="-bhLzEEgGe51W_wiyJ5W-33" value="Raw Data" style="rounded=1;whiteSpace=wrap;html=1;fontSize=10;" vertex="1" parent="1">
          <mxGeometry x="235" y="252.55" width="75" height="37.45" as="geometry" />
        </mxCell>
        <mxCell id="-bhLzEEgGe51W_wiyJ5W-34" value="Business Ready Data" style="rounded=1;whiteSpace=wrap;html=1;fontSize=10;" vertex="1" parent="1">
          <mxGeometry x="517" y="242.55" width="75" height="37.45" as="geometry" />
        </mxCell>
        <mxCell id="-bhLzEEgGe51W_wiyJ5W-36" value="&lt;font style=&quot;font-size: 8px;&quot;&gt;&lt;b&gt;Object Type&lt;/b&gt;: Table&lt;/font&gt;&lt;div&gt;&lt;font style=&quot;font-size: 8px;&quot;&gt;&lt;b&gt;Load&lt;/b&gt;: Batch Processing,&lt;/font&gt;&lt;span style=&quot;color: rgba(0, 0, 0, 0); font-family: monospace; font-size: 0px; text-align: start; text-wrap-mode: nowrap; background-color: transparent;&quot;&gt;%3CmxGraphModel%3E%3Croot%3E%3CmxCell%20id%3D%220%22%2F%3E%3CmxCell%20id%3D%221%22%20parent%3D%220%22%2F%3E%3CmxCell%20id%3D%222%22%20value%3D%22Clean%2C%20Standardized%20Data%22%20style%3D%22rounded%3D1%3BwhiteSpace%3Dwrap%3Bhtml%3D1%3BfontSize%3D10%3B%22%20vertex%3D%221%22%20parent%3D%221%22%3E%3CmxGeometry%20x%3D%22322.5%22%20y%3D%22242.55%22%20width%3D%2275%22%20height%3D%2237.45%22%20as%3D%22geometry%22%2F%3E%3C%2FmxCell%3E%3C%2Froot%3E%3C%2FmxGraphModel%3E&lt;/span&gt;&lt;span style=&quot;font-size: 8px; background-color: transparent; color: light-dark(rgb(0, 0, 0), rgb(255, 255, 255));&quot;&gt;&amp;nbsp;Full Load, Truncate &amp;amp; Insert&lt;/span&gt;&lt;/div&gt;&lt;div&gt;&lt;font style=&quot;font-size: 8px;&quot;&gt;No&amp;nbsp;&lt;b&gt;Transformations&lt;/b&gt;&lt;/font&gt;&lt;/div&gt;&lt;div&gt;&lt;font style=&quot;font-size: 8px;&quot;&gt;&lt;b&gt;Data Model: &lt;/b&gt;None&lt;/font&gt;&lt;/div&gt;" style="rounded=0;whiteSpace=wrap;html=1;" vertex="1" parent="1">
          <mxGeometry x="235" y="300" width="75" height="120" as="geometry" />
        </mxCell>
        <mxCell id="-bhLzEEgGe51W_wiyJ5W-37" value="&lt;font style=&quot;font-size: 8px;&quot;&gt;&lt;b&gt;Object Type&lt;/b&gt;: Table&lt;/font&gt;&lt;div&gt;&lt;font style=&quot;font-size: 8px;&quot;&gt;&lt;b&gt;Load&lt;/b&gt;: Batch Processing,&lt;/font&gt;&lt;span style=&quot;color: rgba(0, 0, 0, 0); font-family: monospace; font-size: 0px; text-align: start; text-wrap-mode: nowrap; background-color: transparent;&quot;&gt;%3CmxGraphModel%3E%3Croot%3E%3CmxCell%20id%3D%220%22%2F%3E%3CmxCell%20id%3D%221%22%20parent%3D%220%22%2F%3E%3CmxCell%20id%3D%222%22%20value%3D%22Clean%2C%20Standardized%20Data%22%20style%3D%22rounded%3D1%3BwhiteSpace%3Dwrap%3Bhtml%3D1%3BfontSize%3D10%3B%22%20vertex%3D%221%22%20parent%3D%221%22%3E%3CmxGeometry%20x%3D%22322.5%22%20y%3D%22242.55%22%20width%3D%2275%22%20height%3D%2237.45%22%20as%3D%22geometry%22%2F%3E%3C%2FmxCell%3E%3C%2Froot%3E%3C%2FmxGraphModel%3E&lt;/span&gt;&lt;span style=&quot;font-size: 8px; background-color: transparent; color: light-dark(rgb(0, 0, 0), rgb(255, 255, 255));&quot;&gt;&amp;nbsp;Full Load, Truncate &amp;amp; Insert&lt;/span&gt;&lt;/div&gt;&lt;div&gt;&lt;font style=&quot;font-size: 8px;&quot;&gt;&lt;b&gt;Data Model: &lt;/b&gt;None&lt;/font&gt;&lt;/div&gt;" style="rounded=0;whiteSpace=wrap;html=1;" vertex="1" parent="1">
          <mxGeometry x="372.5" y="300" width="75" height="120" as="geometry" />
        </mxCell>
        <mxCell id="-bhLzEEgGe51W_wiyJ5W-39" value="&lt;font style=&quot;font-size: 7px;&quot;&gt;&lt;b style=&quot;&quot;&gt;Object Type&lt;/b&gt;: Views&lt;/font&gt;&lt;div&gt;&lt;font style=&quot;font-size: 7px;&quot;&gt;&lt;b&gt;Load&lt;/b&gt;: No Load&lt;/font&gt;&lt;/div&gt;&lt;div&gt;&lt;font style=&quot;font-size: 7px;&quot;&gt;&lt;b&gt;Transformations: &lt;/b&gt;Data Integration, Agg, Business Logics&lt;/font&gt;&lt;/div&gt;&lt;div&gt;&lt;font style=&quot;font-size: 7px;&quot;&gt;Data Model: STAR Schema, Flat Table, Agg Table&lt;/font&gt;&lt;/div&gt;" style="rounded=0;whiteSpace=wrap;html=1;" vertex="1" parent="1">
          <mxGeometry x="522" y="290" width="75" height="130" as="geometry" />
        </mxCell>
        <mxCell id="-bhLzEEgGe51W_wiyJ5W-40" value="" style="shape=image;html=1;verticalAlign=top;verticalLabelPosition=bottom;labelBackgroundColor=#ffffff;imageAspect=0;aspect=fixed;image=https://icons.diagrams.net/icon-cache1/Ionicons_Fill_Vol_2-2187/logo-tableau-566.svg" vertex="1" parent="1">
          <mxGeometry x="680" y="138" width="32" height="32" as="geometry" />
        </mxCell>
        <mxCell id="-bhLzEEgGe51W_wiyJ5W-41" value="" style="image;aspect=fixed;html=1;points=[];align=center;fontSize=12;image=img/lib/azure2/power_platform/PowerBI.svg;" vertex="1" parent="1">
          <mxGeometry x="720" y="130.00000000000003" width="31" height="41.33" as="geometry" />
        </mxCell>
        <mxCell id="-bhLzEEgGe51W_wiyJ5W-42" value="BI &amp;amp; Reporting" style="rounded=0;whiteSpace=wrap;html=1;" vertex="1" parent="1">
          <mxGeometry x="682" y="175.93" width="60" height="30" as="geometry" />
        </mxCell>
        <mxCell id="-bhLzEEgGe51W_wiyJ5W-43" value="" style="image;aspect=fixed;html=1;points=[];align=center;fontSize=12;image=img/lib/azure2/general/Search.svg;" vertex="1" parent="1">
          <mxGeometry x="696" y="238.22" width="32" height="32.5" as="geometry" />
        </mxCell>
        <mxCell id="-bhLzEEgGe51W_wiyJ5W-44" value="Ad-hoc SQL queries" style="rounded=0;whiteSpace=wrap;html=1;" vertex="1" parent="1">
          <mxGeometry x="682" y="280" width="68" height="30" as="geometry" />
        </mxCell>
        <mxCell id="-bhLzEEgGe51W_wiyJ5W-45" value="" style="sketch=0;points=[[0,0,0],[0.25,0,0],[0.5,0,0],[0.75,0,0],[1,0,0],[0,1,0],[0.25,1,0],[0.5,1,0],[0.75,1,0],[1,1,0],[0,0.25,0],[0,0.5,0],[0,0.75,0],[1,0.25,0],[1,0.5,0],[1,0.75,0]];outlineConnect=0;fontColor=#232F3E;fillColor=#01A88D;strokeColor=#ffffff;dashed=0;verticalLabelPosition=bottom;verticalAlign=top;align=center;html=1;fontSize=12;fontStyle=0;aspect=fixed;shape=mxgraph.aws4.resourceIcon;resIcon=mxgraph.aws4.machine_learning;" vertex="1" parent="1">
          <mxGeometry x="698" y="340" width="30" height="30" as="geometry" />
        </mxCell>
        <mxCell id="-bhLzEEgGe51W_wiyJ5W-46" value="Machine Learning" style="rounded=0;whiteSpace=wrap;html=1;" vertex="1" parent="1">
          <mxGeometry x="678" y="380" width="68" height="30" as="geometry" />
        </mxCell>
        <mxCell id="-bhLzEEgGe51W_wiyJ5W-47" value="" style="image;aspect=fixed;html=1;points=[];align=center;fontSize=12;image=img/lib/azure2/databases/SQL_Server.svg;" vertex="1" parent="1">
          <mxGeometry x="210" y="91" width="28" height="28" as="geometry" />
        </mxCell>
      </root>
    </mxGraphModel>
  </diagram>
</mxfile>
